<svg width="640" height="64" viewBox="52 34 282 27" fill="none" preserveAspectRatio="xMinYMid meet" xmlns="http://www.w3.org/2000/svg">
  <path d="M61.6499 41.771H53.9746C59.292 43.2631 63.4857 47.4568 64.9717 52.7927V45.1051C63.9524 43.9078 62.8411 42.7964 61.6499 41.771Z" fill="white"/>
  <path d="M53.8457 35.6924C57.3763 37.1292 60.5938 39.2046 63.3446 41.7712C63.9095 42.2931 64.4498 42.8395 64.9717 43.4044C67.5137 46.1553 69.5707 49.3543 70.9952 52.8788V35.6985H53.8457V35.6924Z" fill="white"/>
  <path d="M80 35.8613H84.6357C88.197 35.8613 90.647 37.0157 90.647 40.1779C90.647 42.5357 89.2716 43.7147 87.1102 44.255V44.3041C89.4435 44.5006 91.0891 46.0234 91.0891 48.4303C91.0891 52.1144 88.0436 52.9986 84.5621 52.9986H80V35.8675V35.8613ZM82.4561 43.1743H83.8069C86.1893 43.1743 88.2032 42.9533 88.2032 40.4235C88.2032 38.3849 86.4594 37.8692 85.0349 37.8692H82.4561V43.1682V43.1743ZM82.4561 50.9785H84.2981C86.5086 50.9785 88.4979 50.5119 88.4979 48.2031C88.4979 45.5506 86.1646 45.1822 84.0585 45.1822H82.4622V50.9724L82.4561 50.9785Z" fill="white"/>
  <path d="M93.3301 40.4725H95.4914V42.4128H95.5405C96.1545 41.1111 97.4808 40.1777 98.8071 40.1777C99.4948 40.1777 99.8386 40.2514 100.33 40.3497V42.4128C99.9123 42.2408 99.4458 42.1917 99.0528 42.1917C96.9897 42.1917 95.6388 44.1566 95.6388 47.2942V52.9862H93.3301V40.4663V40.4725Z" fill="white"/>
  <path d="M112.965 52.9923H110.73V51.0028H110.681C109.993 52.4274 108.323 53.287 106.579 53.287C103.337 53.287 101.895 51.273 101.895 47.9143V40.4785H104.203V46.9564C104.203 49.8792 104.842 51.3037 106.856 51.4265C109.484 51.4265 110.663 49.3143 110.663 46.2687V40.4785H112.971V52.9984L112.965 52.9923Z" fill="white"/>
  <path d="M123.864 42.5849C122.98 42.2165 122.096 42.0446 121.359 42.0446C118.78 42.0446 117.331 44.3533 117.331 46.7357C117.331 48.9707 118.534 51.4206 121.506 51.4206C122.292 51.4206 123.275 51.175 123.987 50.7084L124.159 52.7715C123.201 53.2136 122.096 53.2873 121.261 53.2873C117.478 53.2873 114.881 50.3154 114.881 46.7357C114.881 42.9288 117.435 40.1841 121.261 40.1841C122.194 40.1841 123.397 40.4051 124.061 40.6753L123.864 42.591V42.5849Z" fill="white"/>
  <path d="M125.83 34.5843H128.139V42.2656H128.188C129.023 40.9394 130.472 40.178 132.216 40.178C135.458 40.178 136.901 42.192 136.901 45.5507V52.9864H134.592V46.5085C134.592 43.5858 133.954 42.1613 131.94 42.0446C129.312 42.0446 128.133 44.1568 128.133 47.1962V52.9864H125.824V34.5781L125.83 34.5843Z" fill="white"/>
  <path d="M145.391 40.1777C149.198 40.1777 151.747 42.9286 151.747 46.7293C151.747 50.3091 149.143 53.2809 145.391 53.2809C141.64 53.2809 139.012 50.3091 139.012 46.7293C139.012 42.9224 141.566 40.1777 145.391 40.1777ZM145.391 51.4204C148.093 51.4204 149.297 48.9644 149.297 46.7355C149.297 44.3531 147.847 42.0444 145.391 42.0444C142.935 42.0444 141.462 44.3531 141.462 46.7355C141.462 48.9705 142.665 51.4204 145.391 51.4204Z" fill="white"/>
  <path d="M164.93 52.9923H162.695V51.0028H162.646C161.958 52.4274 160.288 53.287 158.544 53.287C155.302 53.287 153.859 51.273 153.859 47.9143V40.4785H156.168V46.9564C156.168 49.8792 156.807 51.3037 158.821 51.4265C161.449 51.4265 162.628 49.3143 162.628 46.2687V40.4785H164.936V52.9984L164.93 52.9923Z" fill="white"/>
  <path d="M174.773 48.0374C175.166 47.4786 175.307 46.8216 175.307 46.1585H175.841C175.841 46.9567 175.608 47.7734 175.147 48.3935L176.204 49.5356H175.424L174.767 48.8418C174.263 49.4067 173.612 49.6584 172.888 49.6584C171.844 49.6584 170.855 49.1242 170.855 47.9269C170.855 46.9751 171.494 46.4471 172.317 46.1278C171.936 45.6918 171.512 45.2252 171.512 44.5989C171.512 43.7147 172.366 43.248 173.183 43.248C173.919 43.248 174.638 43.6533 174.638 44.5252C174.638 45.4954 173.895 45.8392 173.146 46.2138L174.779 48.0313L174.773 48.0374ZM172.624 46.4778C172.041 46.7111 171.463 47.2208 171.463 47.9085C171.463 48.7497 172.157 49.1856 172.9 49.1856C173.459 49.1856 174.073 48.9032 174.429 48.4672L172.63 46.4778H172.624ZM172.82 45.9006C173.361 45.6427 174.018 45.3603 174.018 44.6296C174.018 44.0463 173.662 43.7331 173.14 43.7331C172.618 43.7331 172.12 44.034 172.12 44.6357C172.12 45.1208 172.483 45.5261 172.82 45.8945" fill="white"/>
  <path d="M182.055 35.7324H191.161V37.8938H184.511V42.898H190.866V45.0594H184.511V52.8636H182.055V35.7324Z" fill="white"/>
  <path d="M204.344 52.8633H202.109V50.8739H202.06C201.372 52.2984 199.702 53.1581 197.958 53.1581C194.716 53.1581 193.273 51.1441 193.273 47.7854V40.3496H195.582V46.8275C195.582 49.7502 196.221 51.1748 198.235 51.2976C200.863 51.2976 202.042 49.1853 202.042 46.1459V40.3558H204.35V52.8756L204.344 52.8633Z" fill="white"/>
  <path d="M207.291 40.3435H209.526V42.333H209.575C210.263 40.9084 211.933 40.0488 213.677 40.0488C216.919 40.0488 218.362 42.0628 218.362 45.4215V52.8573H216.053V46.3794C216.053 43.4566 215.415 42.0321 213.401 41.9093C210.773 41.9093 209.594 44.0215 209.594 47.0671V52.8573H207.285V40.3374L207.291 40.3435Z" fill="white"/>
  <path d="M230.901 52.3479C230.017 52.6672 229.01 53.1583 226.947 53.1583C222.501 53.1583 220.469 50.4567 220.469 46.3857C220.469 42.677 222.802 40.0552 226.333 40.0552C230.508 40.0552 231.853 43.1008 231.853 47.1226H222.919C222.919 49.6032 224.859 51.2979 227.039 51.2979C228.562 51.2979 230.33 50.512 230.895 50.0453V52.354L230.901 52.3479ZM229.403 45.4033C229.403 43.4875 228.273 41.9156 226.284 41.9156C224.024 41.9156 223.091 43.7823 222.919 45.4033H229.397H229.403Z" fill="white"/>
  <path d="M233.038 50.4073C233.947 50.9968 235.248 51.2915 235.912 51.2915C236.968 51.2915 238.269 50.8494 238.269 49.4986C238.269 47.2144 232.848 47.4109 232.848 43.9049C232.848 41.3014 234.788 40.0488 237.269 40.0488C238.349 40.0488 239.233 40.2699 240.142 40.54L239.946 42.554C239.43 42.2347 238.055 41.9154 237.514 41.9154C236.335 41.9154 235.304 42.4066 235.304 43.4382C235.304 45.9925 240.726 45.2557 240.726 49.253C240.726 51.9301 238.589 53.1581 236.36 53.1581C235.181 53.1581 233.977 53.0353 232.921 52.4704L233.044 50.4073H233.038Z" fill="white"/>
  <path d="M257.242 51.0953H257.193C256.579 52.0286 255.155 53.1583 252.92 53.1583C249.137 53.1583 247.547 49.7935 247.547 46.3857C247.547 42.9779 249.315 40.0551 252.944 40.0551C255.13 40.0551 256.383 40.9147 257.095 42.0691H257.144V34.4614H259.453V52.8697H257.242V51.1014V51.0953ZM253.46 51.2917C256.063 51.2917 257.144 48.7129 257.144 46.6252C257.144 44.2919 255.941 41.9156 253.435 41.9156C250.93 41.9156 249.948 44.2734 249.997 46.5576C249.948 48.5225 250.979 51.2917 253.46 51.2917Z" fill="white"/>
  <path d="M271.991 52.3479C271.107 52.6672 270.1 53.1583 268.036 53.1583C263.591 53.1583 261.559 50.4567 261.559 46.3857C261.559 42.677 263.892 40.0552 267.422 40.0552C271.598 40.0552 272.943 43.1008 272.943 47.1226H264.009C264.009 49.6032 265.949 51.2979 268.129 51.2979C269.651 51.2979 271.42 50.512 271.985 50.0453V52.354L271.991 52.3479ZM270.493 45.4033C270.493 43.4875 269.363 41.9156 267.373 41.9156C265.114 41.9156 264.18 43.7823 264.009 45.4033H270.486H270.493Z" fill="white"/>
  <path d="M280.981 35.7324H285.175C288.564 35.7324 291.825 36.2728 291.825 40.3744C291.825 42.4621 290.277 43.9357 288.288 44.2796V44.3287C289.049 44.6234 289.418 44.9918 289.958 46.048L293.2 52.8697H290.4L287.772 46.9321C287.011 45.262 286.2 45.262 284.898 45.262H283.425V52.8697H280.969V35.7386L280.981 35.7324ZM283.437 43.0945H285.525C287.858 43.0945 289.233 42.063 289.233 40.4174C289.233 38.8701 288.055 37.8876 285.795 37.8876H283.437V43.0884V43.0945Z" fill="white"/>
  <path d="M297.67 37.5497H295.066V34.9463H297.67V37.5497ZM295.214 40.3497H297.522V52.8696H295.214V40.3497Z" fill="white"/>
  <path d="M306.309 40.0488C310.116 40.0488 312.664 42.7996 312.664 46.6004C312.664 50.1801 310.061 53.152 306.309 53.152C302.558 53.152 299.93 50.1801 299.93 46.6004C299.93 42.7935 302.484 40.0488 306.309 40.0488ZM306.309 51.2915C309.011 51.2915 310.215 48.8354 310.215 46.6065C310.215 44.2241 308.765 41.9154 306.309 41.9154C303.853 41.9154 302.38 44.2241 302.38 46.6065C302.38 48.8416 303.583 51.2915 306.309 51.2915Z" fill="white"/>
  <path d="M312.498 56.2282C312.792 56.2774 312.989 56.3019 313.431 56.3019C314.512 56.3019 315.076 55.2704 315.076 53.6494V40.3435H317.385V53.3055C317.385 55.123 317.311 58.3098 313.848 58.3098C313.357 58.3098 312.743 58.2852 312.424 58.2115L312.498 56.2221V56.2282ZM317.526 37.5497H314.923V34.9463H317.526V37.5497Z" fill="white"/>
  <path d="M321.21 41.2277C322.364 40.54 323.74 40.0488 325.336 40.0488C328.922 40.0488 330.365 41.8172 330.365 45.225V50.4012C330.365 51.8257 330.414 52.4889 330.463 52.8573H328.302V51.2363H328.253C327.712 51.9976 326.484 53.152 324.372 53.152C321.67 53.152 319.779 51.9731 319.779 49.2468C319.779 46.103 323.218 45.1206 325.594 45.1206C326.503 45.1206 327.141 45.1206 328.05 45.1697C328.05 43.0084 327.264 41.9032 324.955 41.9032C323.654 41.9032 322.254 42.3944 321.32 43.1803L321.198 41.2154L321.21 41.2277ZM328.056 46.8951C327.565 46.8951 327.074 46.846 326.583 46.846C325.33 46.846 322.235 47.0425 322.235 49.253C322.235 50.5793 323.513 51.2915 324.569 51.2915C326.853 51.2915 328.056 49.867 328.056 48.0004V46.8951Z" fill="white"/>
</svg>
